<svg width="81" height="66" viewBox="0 0 81 66" fill="none" xmlns="http://www.w3.org/2000/svg">
<path d="M0 64.3902V53.1219C0 50.9085 0.57375 48.8293 1.72125 46.8841C2.86875 44.939 4.455 43.4634 6.48 42.4573C9.9225 40.7134 13.8037 39.2378 18.1237 38.0305C22.4438 36.8232 27.2025 36.2195 32.4 36.2195C34.425 36.2195 36.3994 36.3201 38.3231 36.5213C40.2469 36.7226 42.12 37.0244 43.9425 37.4268L36.855 44.4695C36.1125 44.3354 35.3869 44.2683 34.6781 44.2683H32.4C27.6075 44.2683 23.3044 44.8384 19.4906 45.9787C15.6769 47.1189 12.555 48.3598 10.125 49.7012C9.5175 50.0366 9.02812 50.5061 8.65687 51.1098C8.28562 51.7134 8.1 52.3841 8.1 53.1219V56.3415H33.4125L41.5125 64.3902H0ZM54.8775 66L40.905 52.1159L46.575 46.4817L54.8775 54.7317L75.33 34.4085L81 40.0427L54.8775 66ZM32.4 32.1951C27.945 32.1951 24.1313 30.6189 20.9587 27.4665C17.7862 24.314 16.2 20.5244 16.2 16.0976C16.2 11.6707 17.7862 7.8811 20.9587 4.72866C24.1313 1.57622 27.945 0 32.4 0C36.855 0 40.6687 1.57622 43.8412 4.72866C47.0137 7.8811 48.6 11.6707 48.6 16.0976C48.6 20.5244 47.0137 24.314 43.8412 27.4665C40.6687 30.6189 36.855 32.1951 32.4 32.1951ZM32.4 24.1463C34.6275 24.1463 36.5344 23.3582 38.1206 21.782C39.7069 20.2058 40.5 18.311 40.5 16.0976C40.5 13.8841 39.7069 11.9893 38.1206 10.4131C36.5344 8.83689 34.6275 8.04878 32.4 8.04878C30.1725 8.04878 28.2656 8.83689 26.6794 10.4131C25.0931 11.9893 24.3 13.8841 24.3 16.0976C24.3 18.311 25.0931 20.2058 26.6794 21.782C28.2656 23.3582 30.1725 24.1463 32.4 24.1463Z" fill="white"/>
</svg>
